# AST/ASF file generated using VICON BodyLanguage
# -----------------------------------------------
:version 1.10
:name VICON
:units
  mass 1.0
  length 0.45
  angle deg
:documentation
   .ast/.asf automatically generated from VICON data using
   VICON BodyBuilder and BodyLanguage model FoxedUp or BRILLIANT.MOD
:root
   order TX TY TZ RX RY RZ
   axis XYZ
   position 0 0 0  
   orientation 0 0 0 
:bonedata
  begin
     id 1 
     name lhipjoint
     direction 0.734343 -0.627749 0.258209 
     length 2.5437 
     axis 0 0 0  XYZ
  end
  begin
     id 2 
     name lfemur
     direction 0.34202 -0.939693 0  
     length 6.7391  
     axis 0 0 20  XYZ
    dof rx ry rz
    limits (-160.0 20.0)
           (-70.0 70.0)
           (-60.0 70.0)
  end
  begin
     id 3 
     name ltibia
     direction 0.34202 -0.939693 0   
     length 7.21536   
     axis 0 0 20   XYZ
    dof rx
    limits (-10.0 170.0)
  end
  begin
     id 4 
     name lfoot
     direction 0.0489572 -0.134509 0.989702   
     length 1.61313   
     axis -90 7.62852e-016 20   XYZ
    dof rx rz
    limits (-45.0 90.0)
           (-70.0 20.0)
  end
  begin
     id 5 
     name ltoes
     direction 1.53451e-011 -4.21692e-011 1   
     length 0.823104   
     axis -90 7.62852e-016 20   XYZ
    dof rx
    limits (-90.0 20.0)
  end
  begin
     id 6 
     name rhipjoint
     direction -0.746398 -0.615468 0.253157   
     length 2.59446  
     axis 0 0 0  XYZ 
  end
  begin
     id 7 
     name rfemur
     direction -0.34202 -0.939693 0   
     length 6.7075   
     axis 0 0 -20   XYZ
    dof rx ry rz
    limits (-160.0 20.0)
           (-70.0 70.0)
           (-70.0 60.0)
  end
  begin
     id 8 
     name rtibia
     direction -0.34202 -0.939693 0   
     length 7.27262   
     axis 0 0 -20   XYZ
    dof rx
    limits (-10.0 170.0)
 end
 begin
     id 9 
     name rfoot
     direction -0.0455203 -0.125066 0.991104   
     length 1.91095  
     axis -90 -7.62852e-016 -20   XYZ
    dof rx rz
    limits (-45.0 90.0)
           (-20.0 70.0)
  end
  begin
     id 10 
     name rtoes
     direction -1.53601e-011 -4.21913e-011 1   
     length 0.969037   
     axis -90 -7.62852e-016 -20   XYZ
    dof rx
    limits (-90.0 20.0)
  end
  begin
     id 11 
     name lowerback
     direction 0.0181546 0.999122 -0.0377542   
     length 1.99916   
     axis 0 0 0   XYZ
    dof rx ry rz
    limits (-20.0 45.0)
           (-30.0 30.0)
           (-30.0 30.0)
  end
  begin
     id 12 
     name upperback
     direction 0.0203486 0.99589 0.0882534   
     length 1.951   
     axis 0 0 0   XYZ
    dof rx ry rz
    limits (-20.0 45.0)
           (-30.0 30.0)
           (-30.0 30.0)
  end
  begin
     id 13 
     name thorax
     direction 0.0131685 0.994241 0.106355   
     length 1.97461   
     axis 0 0 0   XYZ
    dof rx ry rz
    limits (-20.0 45.0)
           (-30.0 30.0)
           (-30.0 30.0)
  end
  begin
     id 14 
     name lowerneck
     direction -0.0281395 0.999325 0.023617   
     length 1.7959   
     axis 0 0 0   XYZ
    dof rx ry rz
    limits (-20.0 45.0)
           (-30.0 30.0)
           (-30.0 30.0)
  end
  begin
     id 15 
     name upperneck
     direction 0.0288721 0.991984 -0.123019   
     length 1.79917   
     axis 0 0 0   XYZ
    dof rx ry rz
    limits (-20.0 45.0)
           (-30.0 30.0)
           (-30.0 30.0)
  end
  begin
     id 16
     name head
     direction 0.0133797 0.998944 -0.0439492  
     length 1.80902  
     axis 0 0 0   XYZ
    dof rx ry rz
    limits (-20.0 45.0)
           (-30.0 30.0)
           (-30.0 30.0)
  end
  begin
     id 17 
     name lclavicle
     direction 0.919195 0.377107 0.113449  
     length 3.17815  
     axis 0 0 0   XYZ
    dof ry rz
    limits (-20.0 10.0)
           (0.0 20.0)
  end
  begin
     id 18 
     name lhumerus
     direction 1 -4.48959e-011 2.13129e-027   
     length 4.84137   
     axis 180 -30 -90   XYZ
    dof rx ry rz
    limits (-60.0 90.0)
           (-90.0 90.0)
           (-90.0 90.0)
  end
  begin
     id 19
     name lradius
     direction 1 -4.48957e-011 -6.30627e-028   
     length 3.2452   
     axis 180 -30 -90   XYZ
    dof rx
    limits (-10.0 170.0)
  end
  begin
     id 20
     name lwrist
     direction 1 -4.4901e-011 9.13299e-027   
     length 1.6226   
     axis -6.84618e-015 90 90   XYZ
    dof ry
    limits (-180.0 0.0)
 end
  begin
     id 21 
     name lhand
     direction 1 -4.48816e-011 1.82293e-026   
     length 0.521221   
     axis -1.16502e-014 90 90   XYZ
    dof rx rz
    limits (-90.0 90.0)
           (-45.0 45.0)
  end
  begin
     id 22 
     name lfingers
     direction 1 -4.49108e-011 3.65687e-026   
     length 0.420221   
     axis -2.33008e-014 90 90   XYZ
    dof rx
    limits (0.0 90.0)
  end
  begin
     id 23
     name lthumb
     direction 0.707107 -6.34943e-011 0.707107   
     length 0.603356   
     axis -90 45 5.69224e-014   XYZ
    dof rx rz
    limits (-45.0 45.0)
           (-45.0 45.0)
  end
  begin
     id 24 
     name rclavicle
     direction -0.90847 0.38596 0.160368   
     length 3.12973  
     axis 0 0 0   XYZ 
    dof ry rz
    limits (-10.0 20.0)
           (-20.0 0.0)
  end
  begin
     id 25 
     name rhumerus
     direction -1 -4.48974e-011 4.47268e-028  
     length 4.72284   
     axis 180 30 90   XYZ
    dof rx ry rz
    limits (-90.0 60.0)
           (-90.0 90.0)
           (-90.0 90.0)
  end
  begin
     id 26 
     name rradius
     direction -1 -4.48969e-011 3.43203e-027   
     length 3.23459   
     axis 180 30 90   XYZ
    dof rx
    limits (-10.0 170.0)
  end
  begin
     id 27 
     name rwrist
     direction -1 -4.48969e-011 9.12911e-027   
     length 1.6173   
     axis -6.84618e-015 -90 -90   XYZ
    dof ry
    limits (-180.0 0.0)
  end
  begin
     id 28
     name rhand
     direction -1 -4.49194e-011 1.83006e-026   
     length 0.307416   
     axis -1.16502e-014 -90 -90   XYZ
    dof rx rz
    limits (-90.0 90.0)
           (-45.0 45.0)
  end
  begin
     id 29
     name rfingers
     direction -1 -4.48423e-011 3.63103e-026   
     length 0.247847   
     axis -2.33008e-014 -90 -90   XYZ
    dof rx
    limits (0.0 90.0)
  end
  begin
     id 30
     name rthumb
     direction -0.707107 -6.34802e-011 0.707107   
     length 0.35586   
     axis -90 -45 -5.69224e-014   XYZ
    dof rx rz
    limits (-45.0 45.0)
           (-45.0 45.0)
  end
:hierarchy
  begin
    root lhipjoint rhipjoint lowerback
    lhipjoint lfemur
    lfemur ltibia
    ltibia lfoot
    lfoot ltoes
    rhipjoint rfemur
    rfemur rtibia
    rtibia rfoot
    rfoot rtoes
    lowerback upperback
    upperback thorax
    thorax lowerneck lclavicle rclavicle
    lowerneck upperneck
    upperneck head
    lclavicle lhumerus
    lhumerus lradius
    lradius lwrist
    lwrist lhand lthumb
    lhand lfingers
    rclavicle rhumerus
    rhumerus rradius
    rradius rwrist
    rwrist rhand rthumb
    rhand rfingers
  end

#!OML:ASF H:\Terrain\Patient Classification 1\Animal1\Tuesday\Animal1.ASF
:FULLY-SPECIFIED
:DEGREES
269
root 12.4777 16.4055 -13.6467 3.80782 -13.1097 -0.332007
lowerback 3.91763 -3.2302 -2.32688
upperback 3.28184 -4.37948 1.00845
thorax 1.43661 -2.25126 2.43917
lowerneck -2.60689 -6.83442 -7.03512
upperneck -1.45682 -9.09369 15.7661
head 1.09087 -4.48901 5.66318
rclavicle 1.04362e-014 -2.59414e-014
rhumerus 62.737 -24.4061 -21.0617
rradius 49.0179
rwrist -26.492
rhand 66.7904 6.91818
rfingers 7.12502
rthumb 74.6179 64.2234
lclavicle 1.04362e-014 -2.59414e-014
lhumerus -34.1119 -27.7693 93.6122
lradius 40.6241
lwrist -23.0401
lhand 0.148917 44.4842
lfingers 7.12502
lthumb 25.733 72.7644
rfemur -15.3669 14.7333 16.4471
rtibia 22.6827
rfoot -4.24272 -21.776
rtoes -9.98374
lfemur -8.21328 -15.679 -9.5354
ltibia 14.3502
lfoot -12.4207 16.1227
ltoes -16.629
270
root 12.4774 16.4069 -13.6487 3.83457 -13.077 -0.238949
lowerback 3.85678 -3.22433 -2.41551
upperback 3.2787 -4.37241 0.972604
thorax 1.47088 -2.24932 2.44769
lowerneck -2.41712 -6.83394 -6.50903
upperneck -1.63713 -9.08358 15.3987
head 0.961358 -4.50094 5.47665
rclavicle -5.54237e-014 -2.68359e-015
rhumerus 62.9624 -24.5618 -21.4074
rradius 48.3676
rwrist -25.8376
rhand 67.4441 7.81666
rfingers 7.12502
rthumb 74.4658 67.421
lclavicle -5.54237e-014 -2.68359e-015
lhumerus -34.1182 -27.7884 93.5876
lradius 40.6995
lwrist -23.0928
lhand 0.373024 44.6925
lfingers 7.12502
lthumb 25.9476 72.9414
rfemur -15.4571 14.6473 16.3357
rtibia 22.7366
rfoot -4.45367 -21.8061
rtoes -9.86285
lfemur -8.29154 -15.7076 -9.60595
ltibia 14.3479
lfoot -12.5741 16.0595
ltoes -16.193
271
root 12.4774 16.4063 -13.6504 3.85629 -13.0745 -0.27051
lowerback 3.83322 -3.21794 -2.38596
upperback 3.28156 -4.36258 0.96596
thorax 1.48352 -2.24392 2.42272
lowerneck -2.2732 -6.84956 -6.26663
upperneck -1.75919 -9.09903 15.3066
head 0.887357 -4.52004 5.41648
rclavicle -2.94326e-014 1.03368e-014
rhumerus 63.1171 -24.6936 -21.6151
rradius 47.8068
rwrist -25.5749
rhand 67.52 8.00456
rfingers 7.12502
rthumb 74.4465 67.8727
lclavicle -2.94326e-014 1.03368e-014
lhumerus -34.1104 -27.8144 93.5811
lradius 40.7051
lwrist -23.1405
lhand 0.447003 44.8526
lfingers 7.12502
lthumb 26.0185 73.0912
rfemur -15.5028 14.6503 16.3632
rtibia 22.7603
rfoot -4.68419 -21.8954
rtoes -10.5739
lfemur -8.32616 -15.6627 -9.56002
ltibia 14.3607
lfoot -12.7936 15.9712
ltoes -15.5735
272
root 12.478 16.4057 -13.6502 3.82838 -13.1048 -0.301163
lowerback 3.85738 -3.2105 -2.35275
upperback 3.30104 -4.35227 0.961238
thorax 1.48655 -2.23837 2.40011
lowerneck -2.29851 -6.8514 -6.47998
upperneck -1.59132 -9.12298 15.6524
head 0.971424 -4.52394 5.55083
rclavicle 6.47417e-014 -1.92821e-014
rhumerus 63.3117 -24.8458 -21.8422
rradius 47.2351
rwrist -25.3033
rhand 67.3125 8.04818
rfingers 7.12502
rthumb 74.4985 67.1933
lclavicle 6.47417e-014 -1.92821e-014
lhumerus -34.0525 -27.8021 93.5716
lradius 40.6684
lwrist -23.1454
lhand 0.369245 44.972
lfingers 7.12502
lthumb 25.944 73.2215
rfemur -15.4853 14.739 16.3845
rtibia 22.7742
rfoot -4.9331 -21.8592
rtoes -10.5886
lfemur -8.28336 -15.6442 -9.54381
ltibia 14.3738
lfoot -12.8853 15.9424
ltoes -14.975
273
root 12.478 16.4055 -13.6501 3.80138 -13.0629 -0.363033
lowerback 3.88804 -3.22748 -2.28804
upperback 3.32365 -4.37388 0.969339
thorax 1.48969 -2.24837 2.37397
lowerneck -2.30034 -6.87847 -7.09548
upperneck -1.36624 -9.19097 16.405
head 1.11454 -4.54618 5.87347
rclavicle -6.74253e-014 1.49089e-014
rhumerus 63.6711 -24.9941 -22.2925
rradius 46.5952
rwrist -24.5974
rhand 66.9506 8.14557
rfingers 7.12502
rthumb 74.583 66.0183
lclavicle -6.74253e-014 1.49089e-014
lhumerus -34.0689 -27.8438 93.585
lradius 40.7095
lwrist -23.0698
lhand 0.310949 45.1908
lfingers 7.12502
lthumb 25.8882 73.4485
rfemur -15.4272 14.7682 16.4563
rtibia 22.8013
rfoot -5.20821 -21.8737
rtoes -10.2969
lfemur -8.24595 -15.6596 -9.49019
ltibia 14.3656
lfoot -12.7371 15.9754
ltoes -15.8146
274
root 12.4776 16.4066 -13.6523 3.78971 -12.9572 -0.2963
lowerback 3.91168 -3.26772 -2.38303
upperback 3.3121 -4.4304 0.97177
thorax 1.47571 -2.27822 2.43202
lowerneck -2.3086 -6.90662 -7.6257
upperneck -1.15115 -9.26067 17.0305
head 1.24613 -4.56969 6.1452
rclavicle -1.61016e-014 1.98785e-015
rhumerus 64.0439 -25.0535 -22.697
rradius 46.0345
rwrist -23.5665
rhand 66.4632 8.03324
rfingers 7.12502
rthumb 74.6844 64.1711
lclavicle -1.61016e-014 1.98785e-015
lhumerus -34.1409 -27.8587 93.6517
lradius 40.7226
lwrist -22.9064
lhand 0.0757804 45.1048
lfingers 7.12502
lthumb 25.663 73.3951
rfemur -15.4172 14.7209 16.3926
rtibia 22.8176
rfoot -5.21746 -21.9622
rtoes -10.4303
lfemur -8.29322 -15.7345 -9.5437
ltibia 14.3478
lfoot -12.5898 15.988
ltoes -16.8769
275
root 12.4778 16.4075 -13.652 3.82424 -12.9269 -0.169379
lowerback 3.84277 -3.2862 -2.52505
upperback 3.2748 -4.45719 0.959102
thorax 1.48756 -2.29383 2.49513
lowerneck -2.32895 -6.87392 -7.44918
upperneck -0.994638 -9.23733 16.9615
head 1.27945 -4.5523 6.09267
rclavicle 2.05245e-014 -7.15625e-015
rhumerus 64.4518 -25.1096 -23.2035
rradius 45.5352
rwrist -22.5304
rhand 66.2464 7.88052
rfingers 7.12502
rthumb 74.7248 63.2396
lclavicle 2.05245e-014 -7.15625e-015
lhumerus -34.2036 -27.7791 93.7132
lradius 40.6812
lwrist -22.8232
lhand -0.171828 44.7885
lfingers 7.12502
lthumb 25.4258 73.1128
rfemur -15.4954 14.6936 16.2413
rtibia 22.8276
rfoot -4.99206 -21.9915
rtoes -10.9303
lfemur -8.35434 -15.8373 -9.65231
ltibia 14.3041
lfoot -12.4234 16.0652
ltoes -17.646
276
root 12.4776 16.4075 -13.6501 3.848 -12.9715 -0.222361
lowerback 3.78456 -3.27454 -2.4758
upperback 3.26886 -4.43925 0.965075
thorax 1.50932 -2.28416 2.4701
lowerneck -2.24961 -6.84173 -7.20251
upperneck -0.95014 -9.20451 16.8463
head 1.25673 -4.53895 6.02055
rclavicle 4.39811e-014 -1.13307e-014
rhumerus 64.9536 -25.2697 -23.964
rradius 45.0141
rwrist -21.6285
rhand 65.6419 7.61691
rfingers 7.12502
rthumb 74.8222 60.7839
lclavicle 4.39811e-014 -1.13307e-014
lhumerus -34.2134 -27.6521 93.6644
lradius 40.674
lwrist -23.0043
lhand 0.108745 44.7899
lfingers 7.12502
lthumb 25.6945 73.0756
rfemur -15.5196 14.7195 16.2961
rtibia 22.8497
rfoot -4.93971 -22.0223
rtoes -11.0431
lfemur -8.29038 -15.817 -9.59813
ltibia 14.2076
lfoot -12.3163 16.0891
ltoes -17.9474
277
root 12.4769 16.4079 -13.6517 3.82282 -12.9625 -0.288903
lowerback 3.83659 -3.27348 -2.44601
upperback 3.2762 -4.43842 0.99089
thorax 1.48758 -2.28337 2.48313
lowerneck -1.97091 -6.87823 -7.54542
upperneck -1.07999 -9.25341 17.2846
head 1.21867 -4.57853 6.22247
rclavicle -3.43152e-014 -3.8763e-015
rhumerus 65.6038 -25.5397 -24.8824
rradius 44.404
rwrist -20.9253
rhand 64.4871 6.40724
rfingers 7.12502
rthumb 74.9438 55.3219
lclavicle -3.43152e-014 -3.8763e-015
lhumerus -34.1882 -27.4502 93.5818
lradius 40.7086
lwrist -23.3611
lhand 0.815207 44.9647
lfingers 7.12502
lthumb 26.371 73.1509
rfemur -15.4691 14.6651 16.3871
rtibia 22.8343
rfoot -4.91301 -21.9752
rtoes -11.2893
lfemur -8.22238 -15.7606 -9.54069
ltibia 14.1529
lfoot -12.4515 16.011
ltoes -17.083
278
root 12.4769 16.4085 -13.6538 3.8351 -12.8941 -0.270373
lowerback 3.86374 -3.29685 -2.5199
upperback 3.25783 -4.47242 1.0305
thorax 1.46484 -2.30181 2.56769
lowerneck -1.74466 -6.92155 -7.865
upperneck -1.16729 -9.31482 17.6586
head 1.1992 -4.62104 6.39809
rclavicle 5.70139e-014 -8.89561e-015
rhumerus 66.3961 -25.8239 -25.9192
rradius 43.6893
rwrist -20.2482
rhand 63.8494 5.31577
rfingers 7.12502
rthumb 74.9742 51.8599
lclavicle 5.70139e-014 -8.89561e-015
lhumerus -34.2185 -27.2969 93.6157
lradius 40.7505
lwrist -23.4902
lhand 0.955327 44.8671
lfingers 7.12502
lthumb 26.5051 73.0331
rfemur -15.47 14.5254 16.3768
rtibia 22.7894
rfoot -4.72584 -21.892
rtoes -11.7217
lfemur -8.2754 -15.7935 -9.54842
ltibia 14.1535
lfoot -12.4738 16.018
ltoes -16.9821
279
root 12.4772 16.4074 -13.6565 3.83528 -12.8634 -0.268124
lowerback 3.9011 -3.30709 -2.56552
upperback 3.24729 -4.48834 1.0591
thorax 1.44022 -2.31057 2.62543
lowerneck -1.81335 -6.93563 -7.80104
upperneck -0.954412 -9.35945 17.6298
head 1.27309 -4.63237 6.36996
rclavicle -3.14949e-014 1.5207e-014
rhumerus 67.0502 -25.9955 -26.8581
rradius 43.0449
rwrist -19.4661
rhand 63.3608 5.69849
rfingers 7.12502
rthumb 74.9796 50.4221
lclavicle -3.14949e-014 1.5207e-014
lhumerus -34.2656 -27.2396 93.6626
lradius 40.8102
lwrist -23.4519
lhand 0.754622 44.6584
lfingers 7.12502
lthumb 26.313 72.8533
rfemur -15.4988 14.5302 16.3693
rtibia 22.7899
rfoot -4.71421 -21.8632
rtoes -11.7216
lfemur -8.29499 -15.8064 -9.53796
ltibia 14.1297
lfoot -12.3681 16.0302
ltoes -17.389
280
root 12.4767 16.4056 -13.6592 3.8075 -12.8661 -0.257056
lowerback 4.0113 -3.30916 -2.63308
upperback 3.2171 -4.49562 1.0841
thorax 1.35567 -2.31424 2.69713
lowerneck -1.95685 -6.98441 -7.97778
upperneck -0.606977 -9.46845 17.8014
head 1.42973 -4.6661 6.43536
rclavicle -9.18137e-015 7.45443e-016
rhumerus 67.4447 -26.0171 -27.4013
rradius 42.6126
rwrist -18.7828
rhand 61.6379 6.78288
rfingers 7.12502
rthumb 74.8751 45.1172
lclavicle -9.18137e-015 7.45443e-016
lhumerus -34.3358 -27.2074 93.6976
lradius 40.8607
lwrist -23.369
lhand 0.952965 44.504
lfingers 7.12502
lthumb 26.5028 72.6704
rfemur -15.5218 14.6738 16.3426
rtibia 22.84
rfoot -5.03768 -21.8975
rtoes -10.9476
lfemur -8.26883 -15.7379 -9.55875
ltibia 14.0971
lfoot -12.2867 16.059
ltoes -17.7897
281
root 12.4757 16.406 -13.6588 3.84612 -12.8666 -0.253958
lowerback 4.01067 -3.31381 -2.6886
upperback 3.17576 -4.50368 1.11644
thorax 1.32109 -2.31861 2.76282
lowerneck -1.8854 -7.00247 -8.13913
upperneck -0.555964 -9.50876 18.0551
head 1.45978 -4.68657 6.54087
rclavicle -2.26615e-014 -9.54166e-015
rhumerus 67.6003 -26.0542 -27.5051
rradius 42.3297
rwrist -18.5326
rhand 59.4238 8.4533
rfingers 7.12502
rthumb 74.4653 38.8421
lclavicle -2.26615e-014 -9.54166e-015
lhumerus -34.4527 -27.1542 93.76
lradius 40.9356
lwrist -23.256
lhand 1.27859 44.4712
lfingers 7.12502
lthumb 26.8145 72.5902
rfemur -15.5752 14.7098 16.3349
rtibia 22.9175
rfoot -5.26836 -21.8782
rtoes -10.0488
lfemur -8.28741 -15.7389 -9.55832
ltibia 14.0488
lfoot -12.0588 16.213
ltoes -19.1482
282
root 12.476 16.4057 -13.659 3.90619 -12.8142 -0.221205
lowerback 3.85441 -3.33343 -2.69244
upperback 3.215 -4.52604 1.0896
thorax 1.44828 -2.33191 2.72579
lowerneck -1.63916 -6.98621 -8.11043
upperneck -0.818488 -9.47078 18.2991
head 1.34974 -4.68922 6.62827
rclavicle 8.21602e-014 -2.12203e-014
rhumerus 67.7165 -26.3077 -27.6655
rradius 42.0492
rwrist -18.5874
rhand 57.3157 9.08463
rfingers 7.12502
rthumb 73.8077 32.4183
lclavicle 8.21602e-014 -2.12203e-014
lhumerus -34.4929 -27.1082 93.7114
lradius 41.1018
lwrist -23.2896
lhand 1.44551 44.6576
lfingers 7.12502
lthumb 26.9742 72.7519
rfemur -15.6582 14.6078 16.2988
rtibia 22.9957
rfoot -5.05311 -21.8911
rtoes -9.41226
lfemur -8.35006 -15.8138 -9.56752
ltibia 13.99
lfoot -11.847 16.2803
ltoes -19.996
283
root 12.4766 16.4067 -13.6623 3.9224 -12.7137 -0.176654
lowerback 3.78567 -3.36005 -2.69521
upperback 3.2733 -4.55936 1.04078
thorax 1.54518 -2.3502 2.67082
lowerneck -1.52148 -7.02685 -8.14517
upperneck -0.863162 -9.53551 18.6023
head 1.34452 -4.72869 6.7307
rclavicle -3.64521e-014 1.77415e-014
rhumerus 67.8701 -26.5675 -27.8677
rradius 41.7482
rwrist -18.3198
rhand 55.1241 6.65472
rfingers 7.12502
rthumb 72.8802 23.3443
lclavicle -3.64521e-014 1.77415e-014
lhumerus -34.4919 -27.299 93.66
lradius 41.2246
lwrist -23.1951
lhand 1.23355 44.9048
lfingers 7.12502
lthumb 26.7714 73.0304
rfemur -15.7265 14.4993 16.2474
rtibia 23.0435
rfoot -4.80281 -21.9833
rtoes -9.45686
lfemur -8.41213 -15.8421 -9.58941
ltibia 13.9562
lfoot -11.9197 16.138
ltoes -19.2651
